<svg width="450" height="246" viewBox="0 0 450 246" fill="none" xmlns="http://www.w3.org/2000/svg">
<path d="M138.152 102.836C138.567 103.666 138.878 104.444 139.086 105.17C139.397 105.896 139.656 106.674 139.864 107.504H108.126C107.919 106.778 107.711 106.155 107.504 105.637C107.296 105.014 107.089 104.444 106.881 103.925L101.281 91.1681H39.0498L33.6046 103.77C33.3972 104.392 33.1897 105.014 32.9823 105.637C32.7749 106.259 32.6193 106.881 32.5156 107.504H0C0.207436 106.674 0.414872 105.896 0.622308 105.17C0.933462 104.444 1.29647 103.666 1.71135 102.836L39.361 19.4471C42.3688 12.9129 46.3101 8.03815 51.1848 4.82289C56.0596 1.60763 62.2826 0 69.854 0C77.218 0 83.3374 1.60763 88.2121 4.82289C93.1906 8.03815 97.1837 12.9129 100.192 19.4471L138.152 102.836ZM91.0125 67.9871L74.8325 30.3375C74.3139 29.1966 73.6398 28.3669 72.81 27.8483C71.9803 27.3297 71.0468 27.0704 70.0096 27.0704C69.0762 27.0704 68.1946 27.3297 67.3648 27.8483C66.5351 28.2631 65.8609 29.0929 65.3423 30.3375L49.3179 67.9871H91.0125Z" fill="#FF9900"/>
<path d="M179.451 2.33365V45.4285L227.368 6.68982C229.028 5.34148 230.48 3.88943 231.725 2.33365H271.086C270.774 2.85225 270.36 3.37084 269.841 3.88943C269.322 4.3043 268.804 4.71916 268.285 5.13404L210.411 49.9402C209.788 50.4588 209.477 51.0292 209.477 51.6515C209.477 52.2738 209.788 52.8443 210.411 53.3629L272.486 103.614C273.212 104.237 273.886 104.859 274.508 105.481C275.234 106.103 275.908 106.778 276.531 107.504H234.525C233.488 106.259 231.932 104.807 229.858 103.148L179.451 60.9862V107.504H150.98V2.33365H179.451Z" fill="#FF9900"/>
<path d="M367.091 109.682C363.357 109.682 359.883 108.904 356.667 107.348C353.452 105.792 351.015 103.355 349.355 100.036L317.462 33.9158C317.151 33.086 316.477 32.6712 315.44 32.6712C314.817 32.6712 314.247 32.9305 313.728 33.449C313.21 33.8639 312.95 34.5381 312.95 35.4715V107.504H285.88V30.4931C285.88 24.5812 286.71 19.7064 288.369 15.8688C290.132 12.0313 292.57 8.86789 295.681 6.37866C298.067 4.51173 300.763 3.00782 303.771 1.86693C306.883 0.622309 310.306 0 314.039 0C320.677 0 326.071 1.81507 330.219 5.4452C334.472 9.07532 337.946 13.7945 340.643 19.6027L364.446 71.2542C364.965 72.6026 365.846 73.2767 367.091 73.2767C368.336 73.2767 369.217 72.6026 369.736 71.2542L393.539 19.6027C396.236 13.7945 399.659 9.07532 403.807 5.4452C407.956 1.81507 413.401 0 420.143 0C423.877 0 427.247 0.622309 430.255 1.86693C433.367 3.00782 436.115 4.51173 438.501 6.37866C441.612 8.86789 443.998 12.0313 445.657 15.8688C447.421 19.7064 448.302 24.5812 448.302 30.4931V107.504H421.232V35.4715C421.232 34.5381 420.973 33.8639 420.454 33.449C419.935 32.9305 419.365 32.6712 418.743 32.6712C417.705 32.6712 417.031 33.086 416.72 33.9158L384.827 100.036C383.167 103.355 380.73 105.792 377.515 107.348C374.299 108.904 370.825 109.682 367.091 109.682Z" fill="#FF9900"/>
<path d="M23.5858 116.398C25.8428 116.398 27.7235 116.712 29.2282 117.339C30.7642 117.934 32.065 118.765 33.1308 119.831C34.2279 120.928 35.09 122.213 35.7169 123.686C36.3438 125.16 36.6573 126.696 36.6573 128.294C36.6573 129.705 36.4065 131.069 35.905 132.385C35.4348 133.67 34.7608 134.846 33.8831 135.912C32.786 137.228 31.4068 138.278 29.7454 139.062C28.084 139.814 26.0308 140.19 23.5858 140.19H8.9627V148.184H0.452148V118.373C0.452148 117.057 1.14177 116.398 2.52101 116.398H23.5858ZM23.7739 132.385C24.7143 132.385 25.4666 132.26 26.0308 132.009C26.6264 131.727 27.0966 131.351 27.4414 130.88C27.943 130.222 28.1937 129.47 28.1937 128.624C28.1937 127.714 27.9273 126.915 27.3944 126.226C27.0496 125.787 26.5794 125.442 25.9838 125.191C25.4196 124.94 24.6829 124.815 23.7739 124.815H9.57396C9.16646 124.815 8.9627 125.034 8.9627 125.473V132.385H23.7739Z" fill="#0D0D0D"/>
<path d="M56.2538 148.184C53.4013 148.184 50.9249 147.729 48.8247 146.82C46.7245 145.88 44.9378 144.61 43.4645 143.012C42.1793 141.601 41.1762 139.987 40.4552 138.169C39.7343 136.35 39.3738 134.391 39.3738 132.291C39.3738 129.971 39.8283 127.809 40.7373 125.802C41.6464 123.796 42.9002 122.056 44.4989 120.583C45.9095 119.267 47.5709 118.248 49.483 117.527C51.4265 116.775 53.6834 116.398 56.2538 116.398H62.9306C65.501 116.398 67.7423 116.775 69.6544 117.527C71.5979 118.248 73.2749 119.267 74.6855 120.583C76.2842 122.056 77.538 123.796 78.4471 125.802C79.3561 127.809 79.8107 129.971 79.8107 132.291C79.8107 134.391 79.4502 136.35 78.7292 138.169C78.0082 139.987 77.0052 141.601 75.72 143.012C74.2467 144.61 72.4599 145.88 70.3597 146.82C68.2595 147.729 65.7831 148.184 62.9306 148.184H56.2538ZM56.2538 124.815C54.8119 124.815 53.6207 125.003 52.6803 125.379C51.7399 125.755 50.9249 126.257 50.2353 126.884C49.5143 127.573 48.9344 128.388 48.4956 129.329C48.0881 130.269 47.8843 131.272 47.8843 132.338C47.8843 133.31 48.0567 134.235 48.4015 135.112C48.7464 135.959 49.2322 136.711 49.8591 137.369C50.5488 138.121 51.4108 138.717 52.4452 139.156C53.4797 139.595 54.7492 139.814 56.2538 139.814H62.9306C64.4352 139.814 65.7048 139.595 66.7392 139.156C67.7736 138.717 68.6357 138.121 69.3253 137.369C69.9522 136.711 70.4381 135.959 70.7829 135.112C71.1277 134.235 71.3001 133.31 71.3001 132.338C71.3001 131.272 71.0807 130.269 70.6418 129.329C70.2343 128.388 69.6701 127.573 68.9491 126.884C68.2595 126.257 67.4445 125.755 66.5041 125.379C65.5637 125.003 64.3725 124.815 62.9306 124.815H56.2538Z" fill="#0D0D0D"/>
<path d="M109.684 123.263C109.151 123.263 108.807 123.577 108.65 124.204L103.713 141.742C103.023 144.187 101.926 145.989 100.421 147.149C98.9168 148.278 96.942 148.842 94.497 148.842C93.055 148.842 91.7855 148.654 90.6884 148.278C89.6226 147.933 88.7135 147.447 87.9612 146.82C87.2089 146.193 86.6133 145.441 86.1745 144.563C85.7356 143.685 85.4378 142.745 85.2811 141.742L81.3315 117.903C81.2374 117.307 81.1904 116.806 81.1904 116.398H90.1711C90.1711 116.555 90.1711 116.743 90.1711 116.963C90.2025 117.182 90.2338 117.401 90.2652 117.621L93.6036 139.344C93.6976 140.065 94.0738 140.425 94.7321 140.425C95.0142 140.425 95.2493 140.363 95.4374 140.237C95.6254 140.081 95.7665 139.814 95.8605 139.438L100.704 122.37C101.362 120.082 102.381 118.405 103.76 117.339C105.139 116.242 107.114 115.693 109.684 115.693C112.223 115.693 114.151 116.226 115.468 117.292C116.784 118.358 117.74 119.972 118.336 122.135L123.085 139.438C123.179 139.814 123.32 140.081 123.508 140.237C123.696 140.363 123.931 140.425 124.213 140.425C124.84 140.425 125.216 140.065 125.342 139.344L128.962 117.621C129.025 117.37 129.056 117.151 129.056 116.963C129.056 116.743 129.056 116.555 129.056 116.398H137.943C137.943 116.649 137.927 116.884 137.896 117.104C137.896 117.292 137.865 117.558 137.802 117.903L133.57 141.789C133.194 143.889 132.254 145.598 130.749 146.914C129.276 148.199 127.113 148.842 124.26 148.842C119.527 148.842 116.534 146.475 115.28 141.742L110.719 124.204C110.562 123.577 110.217 123.263 109.684 123.263Z" fill="#0D0D0D"/>
<path d="M173.839 116.398V124.815H149.671C149.169 124.815 148.919 125.081 148.919 125.614V129.235H173.698V135.347H148.919V139.203C148.919 139.767 149.169 140.049 149.671 140.049H173.839V148.184H144.875C141.897 148.184 140.408 146.71 140.408 143.764V120.677C140.408 117.825 141.913 116.398 144.922 116.398H173.839Z" fill="#0D0D0D"/>
<path d="M186.342 148.184H177.832V118.373C177.832 117.057 178.537 116.398 179.948 116.398H202.517C204.492 116.398 206.122 116.681 207.407 117.245C208.692 117.778 209.774 118.499 210.652 119.408C211.435 120.223 212.047 121.179 212.485 122.276C212.956 123.342 213.191 124.47 213.191 125.661C213.191 126.946 212.971 128.169 212.532 129.329C212.094 130.457 211.31 131.429 210.181 132.244C211.247 132.871 212.015 133.67 212.485 134.642C212.987 135.614 213.238 137.009 213.238 138.827V145.174C213.238 145.864 213.238 146.428 213.238 146.867C213.269 147.306 213.316 147.745 213.379 148.184H204.774C204.68 147.494 204.633 146.789 204.633 146.068V139.72C204.633 138.717 204.367 137.996 203.834 137.557C203.301 137.118 202.408 136.899 201.154 136.899H186.342V148.184ZM201.389 129.658C201.984 129.658 202.47 129.564 202.846 129.376C203.223 129.188 203.536 128.937 203.787 128.624C204.194 128.122 204.398 127.573 204.398 126.978C204.398 126.257 204.163 125.661 203.693 125.191C203.191 124.627 202.423 124.345 201.389 124.345H187.048C186.578 124.345 186.342 124.58 186.342 125.05V129.658H201.389Z" fill="#0D0D0D"/>
<path d="M234.877 115.957H276.878L254.469 165.034H277.049L214.708 245.921L233.915 181.28H215.21L234.877 115.957Z" fill="#FF9900"/>
<path d="M336.448 116.05V160.335H324.525V143.237H298.124V160.335H286.201V116.05H298.124V132.1H324.525V116.05H336.448Z" fill="#0D0D0D"/>
<path d="M358.401 160.335C355.606 160.335 353.226 160.073 351.261 159.549C349.295 158.981 347.68 158.129 346.413 156.994C345.19 155.815 344.295 154.352 343.727 152.605C343.159 150.814 342.875 148.674 342.875 146.185V116.05H354.798V144.874C354.798 147.626 356.218 149.002 359.057 149.002H377.465C380.391 149.002 381.854 147.626 381.854 144.874V116.05H393.777V146.185C393.777 151.12 392.576 154.723 390.174 156.994C387.772 159.221 383.798 160.335 378.251 160.335H358.401Z" fill="#0D0D0D"/>
<path d="M434.73 116.05C439.404 116.05 443.028 117.447 445.605 120.242C446.61 121.334 447.418 122.623 448.029 124.108C448.64 125.549 448.946 127.208 448.946 129.086C448.946 131.008 448.553 132.755 447.767 134.327C447.025 135.856 445.933 137.101 444.491 138.061C446.151 138.935 447.374 140.245 448.16 141.992C448.99 143.739 449.405 145.639 449.405 147.691C449.405 149.264 449.121 150.749 448.553 152.146C448.029 153.544 447.287 154.81 446.326 155.946C445.19 157.3 443.727 158.37 441.937 159.156C440.19 159.942 438.006 160.335 435.386 160.335H403.089C401.124 160.335 400.141 159.396 400.141 157.518V118.801C400.141 116.967 401.124 116.05 403.089 116.05H434.73ZM411.998 148.609C411.998 149.264 412.304 149.591 412.915 149.591H432.569C433.442 149.591 434.141 149.482 434.665 149.264C435.233 149.002 435.691 148.674 436.041 148.281C436.652 147.539 436.958 146.709 436.958 145.792C436.958 144.918 436.63 144.11 435.975 143.368C435.626 142.975 435.189 142.669 434.665 142.451C434.141 142.232 433.442 142.123 432.569 142.123H411.998V148.609ZM432.634 134.196C433.464 134.196 434.119 134.087 434.599 133.869C435.123 133.607 435.56 133.257 435.91 132.821C436.434 132.165 436.696 131.445 436.696 130.659C436.696 129.873 436.434 129.152 435.91 128.497C435.56 128.104 435.123 127.798 434.599 127.58C434.119 127.318 433.464 127.187 432.634 127.187H412.915C412.304 127.187 411.998 127.514 411.998 128.169V134.196H432.634Z" fill="#0D0D0D"/>
</svg>
